<?xml version="1.0" standalone="no"?>
<!DOCTYPE svg PUBLIC "-//W3C//DTD SVG 20010904//EN"
 "http://www.w3.org/TR/2001/REC-SVG-20010904/DTD/svg10.dtd">
<svg version="1.0" xmlns="http://www.w3.org/2000/svg"
 width="16.000000pt" height="16.000000pt" viewBox="0 0 16.000000 16.000000"
 preserveAspectRatio="xMidYMid meet">
<metadata>
Created by potrace 1.11, written by Peter Selinger 2001-2013
</metadata>
<g transform="translate(0.000000,16.000000) scale(0.007111,-0.007111)"
fill="#000000" stroke="none">
<path d="M1116 1923 c-51 -17 -66 -31 -66 -59 0 -16 -8 -28 -25 -36 -20 -9
-23 -16 -18 -37 7 -32 7 -32 29 -35 22 -3 19 17 38 -293 1 -12 5 -25 8 -28 3
-4 42 -7 87 -8 l80 -2 5 30 c3 17 8 72 12 123 3 51 7 100 9 110 2 9 4 29 4 43
1 24 4 26 42 23 23 -2 43 -5 46 -7 2 -3 -5 -58 -15 -122 -27 -165 -15 -200 82
-230 28 -9 59 -20 68 -26 10 -5 25 -9 33 -9 28 0 15 -18 -17 -25 -30 -7 -66
-23 -78 -35 -3 -3 -25 -15 -50 -28 -25 -12 -53 -28 -62 -35 -14 -9 -25 -7 -59
10 -45 23 -63 20 -122 -20 l-28 -19 -142 47 c-78 25 -149 50 -157 54 -9 5 -30
12 -48 16 -36 8 -42 21 -12 30 11 4 18 11 14 16 -3 6 3 13 14 16 18 4 19 8 10
31 -16 40 -20 52 -94 239 -64 163 -69 172 -93 171 -28 -2 -152 -53 -190 -78
l-23 -16 36 -65 c38 -69 44 -88 24 -72 -28 21 -145 60 -175 58 -41 -4 -210
-133 -201 -155 2 -6 145 -158 316 -336 18 -18 36 -18 52 1 7 9 26 25 42 36
l28 20 26 -20 c15 -12 36 -21 48 -21 11 0 35 -7 51 -16 105 -57 255 -132 283
-142 34 -12 44 -42 13 -42 -28 0 -102 28 -115 44 -6 7 -25 18 -43 24 -38 13
-51 2 -63 -55 -6 -26 -5 -40 2 -45 12 -7 12 -93 0 -112 -9 -15 -3 -48 14 -67
12 -14 9 -15 -27 -13 -99 4 -145 -33 -203 -162 -43 -98 -48 -139 -22 -178 54
-83 274 -138 357 -90 53 31 64 63 85 252 4 43 2 59 -16 86 -11 19 -26 37 -33
39 -8 3 -5 11 9 25 12 12 24 25 25 29 4 9 94 44 119 47 8 0 17 3 20 6 3 3 35
17 73 32 53 21 67 23 67 12 0 -8 10 -30 23 -49 l22 -33 40 14 c22 7 41 14 42
14 12 1 34 70 31 98 -3 35 -1 37 30 40 29 3 33 1 28 -15 -15 -49 -14 -72 4
-91 10 -11 16 -22 13 -25 -3 -3 12 -1 32 6 37 11 77 52 81 82 1 9 -1 29 -6 44
l-8 28 112 27 c133 32 136 32 159 41 10 5 17 3 17 -5 0 -9 4 -9 17 1 9 8 18
13 20 12 27 -20 85 37 89 86 1 14 6 35 10 45 6 15 4 17 -7 10 -17 -11 -125
-16 -113 -5 28 24 241 176 293 209 l61 38 -38 35 c-42 41 -116 98 -149 116
-21 12 -27 8 -76 -42 -29 -30 -56 -55 -59 -55 -3 0 5 35 19 77 23 74 23 78 6
91 -31 24 -203 103 -213 97 -4 -3 -15 -2 -24 1 -12 4 -13 11 -5 31 5 15 6 30
2 34 -9 9 -128 43 -196 57 -35 7 -49 7 -52 -2 -14 -49 -12 -47 -77 -40 -70 7
-81 11 -73 25 4 5 28 9 55 9 34 0 50 4 54 16 14 36 7 42 -56 49 -117 12 -143
12 -182 -2z m529 -245 c22 -10 25 -17 25 -66 0 -68 -19 -225 -30 -242 -11 -18
-65 2 -65 24 0 9 -7 21 -15 26 -8 5 -10 10 -5 10 6 0 2 7 -8 14 -17 13 -16 19
17 112 41 118 47 134 52 134 2 0 15 -5 29 -12z m68 -472 c60 -29 65 -32 45
-33 -7 0 -39 -4 -70 -8 -41 -5 -58 -4 -58 4 0 6 4 11 8 11 5 0 6 14 4 31 -3
17 -1 30 4 27 5 -2 35 -16 67 -32z m-239 -312 c24 -9 6 -34 -25 -34 -16 0 -29
5 -29 10 0 6 7 10 15 10 8 0 15 5 15 10 0 12 3 12 24 4z m-228 -25 c4 -8 9 -8
13 -1 10 17 35 -4 27 -23 -5 -13 -9 -15 -20 -6 -11 9 -15 9 -18 0 -6 -18 -28
-1 -28 22 0 21 15 26 26 8z m-486 -230 c0 -11 -12 -65 -27 -120 -18 -68 -31
-99 -41 -99 -19 0 -13 36 23 153 26 83 45 111 45 66z"/>
<path d="M905 1914 c-140 -29 -205 -47 -205 -57 0 -7 3 -22 6 -33 l6 -21 70
18 c38 10 92 21 119 25 56 8 70 20 58 52 -8 22 -15 24 -54 16z"/>
<path d="M821 1805 c-52 -13 -95 -26 -97 -28 -2 -2 3 -23 10 -48 46 -141 99
-316 99 -326 0 -17 11 -16 102 4 50 11 75 21 75 30 0 8 4 12 9 9 4 -3 4 16 -1
42 -5 26 -10 67 -12 92 -2 25 -7 52 -10 60 -4 13 -7 37 -19 160 -4 34 -39 36
-156 5z"/>
<path d="M286 1037 l-29 -31 37 -34 c21 -18 35 -39 33 -46 -3 -7 -57 -78 -122
-159 -64 -81 -114 -151 -110 -156 3 -6 44 -36 91 -67 69 -46 88 -54 95 -43 5
8 9 17 9 21 0 4 10 7 21 5 18 -2 36 23 108 146 64 110 90 145 101 141 8 -4 30
-8 48 -10 28 -3 34 1 51 35 18 34 16 66 -3 61 -11 -3 -127 67 -162 98 -80 69
-83 71 -87 59 -3 -9 -8 -9 -18 1 -19 17 -30 14 -63 -21z"/>
<path d="M1852 973 c-98 -33 -200 -137 -188 -190 l7 -28 -20 29 c-27 40 -53
42 -86 5 -17 -20 -30 -27 -34 -20 -10 16 -147 -32 -142 -50 2 -8 5 -21 6 -29
1 -8 5 -22 8 -30 3 -8 22 -76 42 -150 20 -74 42 -140 50 -146 8 -6 15 -16 15
-23 0 -6 9 -11 19 -11 21 0 161 48 173 59 4 3 -13 56 -38 116 -49 120 -49 138
1 171 14 9 24 22 22 29 -3 6 18 0 46 -13 35 -17 60 -23 83 -19 19 3 34 4 34 1
0 -2 -23 -18 -50 -35 -50 -31 -50 -31 -34 -58 21 -35 85 -71 127 -71 77 0 228
104 267 185 38 79 7 134 -90 160 -49 13 -58 12 -109 -5 l-56 -20 58 53 58 52
-25 24 c-30 28 -88 34 -144 14z m14 -132 c13 11 34 4 34 -10 0 -11 -38 -21
-56 -14 -8 3 -14 12 -14 21 0 12 3 13 12 4 8 -8 15 -8 24 -1z m114 -153 c0 -7
-4 -19 -9 -27 -7 -12 -13 -12 -40 0 -35 16 -39 25 -13 32 34 9 62 7 62 -5z"/>
<path d="M1276 713 c-4 -4 -49 -11 -74 -12 -17 -1 -22 -6 -18 -18 3 -10 8 -61
11 -113 4 -52 8 -111 10 -130 5 -44 -3 -70 -20 -70 -17 0 -21 14 -25 85 -1 33
-4 76 -5 95 -2 19 -3 60 -4 91 l-1 56 -78 0 c-51 0 -79 -4 -79 -11 0 -6 -4
-56 -8 -111 -5 -55 -9 -138 -9 -184 -1 -80 0 -84 27 -105 40 -30 145 -32 193
-4 29 17 34 18 34 4 0 -12 8 -15 36 -11 117 15 170 28 167 41 -1 7 -57 265
-80 371 -3 13 -9 20 -14 17 -5 -3 -9 0 -9 5 0 9 -46 12 -54 4z"/>
</g>
</svg>
